<svg width="40" height="26" viewBox="0 0 40 26" fill="none" xmlns="http://www.w3.org/2000/svg">
<path d="M36.6667 3.8161H25V0.462402H36.6667V3.8161ZM39.5433 20.5846C38.8067 22.7595 36.1617 25.6152 31.0417 25.6152C25.9183 25.6152 21.7683 22.7159 21.7683 16.099C21.7683 9.54255 25.6433 6.17208 30.8783 6.17208C36.015 6.17208 39.1517 9.16022 39.8367 13.5938C39.9667 14.4423 40.0183 15.5859 39.995 17.1823H26.6167C26.8333 22.5666 32.4217 22.736 34.2633 20.5846H39.5433ZM26.7333 13.8772H35.0083C34.8333 11.2831 33.115 10.1563 30.88 10.1563C28.4367 10.1563 27.085 11.4441 26.7333 13.8772ZM10.7767 25.595H0V0.497616H11.5883C20.715 0.633441 20.8883 9.62639 16.1217 12.0779C21.89 14.1908 22.0833 25.595 10.7767 25.595ZM5 10.5235H10.9733C15.1533 10.5235 15.8167 5.49295 10.4533 5.49295H5V10.5235ZM10.6517 15.5541H5V20.6114H10.5683C15.66 20.6114 15.3483 15.5541 10.6517 15.5541Z" fill="white"/>
</svg>
