<svg width="35" height="36" viewBox="0 0 35 36" fill="none" xmlns="http://www.w3.org/2000/svg">
<path fill-rule="evenodd" clip-rule="evenodd" d="M13.0007 12.6716H19.5002V15.9289C20.4365 14.0555 22.8375 12.3723 26.4443 12.3723C33.3585 12.3723 35 16.1015 35 22.9435V35.6152H28V24.5017C28 20.6053 27.0638 18.408 24.6803 18.408C21.3745 18.408 20.0007 20.7761 20.0007 24.5V35.6152H13.0007V12.6716ZM0.9975 35.3159H7.9975V12.3723H0.9975V35.3159ZM9.00025 4.89113C9.00051 5.48145 8.88415 6.06593 8.65793 6.6106C8.43171 7.15528 8.10014 7.64928 7.6825 8.0639C6.8362 8.91013 5.69067 9.38381 4.4975 9.3809C3.30643 9.3801 2.16354 8.90762 1.316 8.06566C0.89987 7.64963 0.569425 7.15507 0.343601 6.61033C0.117778 6.06558 0.00101348 5.48136 0 4.89113C0 3.69915 0.4725 2.55822 1.31775 1.7166C2.16455 0.873512 3.30792 0.40084 4.49925 0.401368C5.69275 0.401368 6.83725 0.874994 7.6825 1.7166C8.526 2.55822 9.00025 3.69915 9.00025 4.89113Z" fill="white"/>
</svg>
