<svg width="493" height="364" viewBox="0 0 493 364" fill="none" xmlns="http://www.w3.org/2000/svg">
<rect width="493" height="364" rx="182" fill="white"/>
<path d="M167.369 135.043H167.405L167.441 135.038C171.636 134.431 175.04 130.976 175.04 126.309C175.04 122.525 172.885 120.494 170.742 118.473C170.555 118.297 170.369 118.121 170.183 117.943C169.014 116.825 167.885 115.655 167.042 114.133C166.204 112.618 165.635 110.731 165.635 108.171C165.635 99.8984 173.728 93.3172 183.944 93.3172C194.153 93.3172 202.252 100.186 202.252 108.171C202.252 110.734 201.684 112.617 200.846 114.126C200.003 115.643 198.874 116.805 197.706 117.918C197.525 118.09 197.343 118.261 197.161 118.432C195.012 120.45 192.848 122.482 192.848 126.309C192.848 130.919 196.231 134.75 200.507 134.75H221.561C226.439 134.75 230.465 139.157 230.465 144.388V167.741C230.465 172.352 233.848 176.182 238.124 176.182C241.591 176.182 243.446 173.76 245.252 171.401C245.413 171.191 245.573 170.981 245.735 170.774C246.745 169.474 247.798 168.225 249.164 167.294C250.517 166.372 252.196 165.751 254.475 165.751C258.147 165.757 261.537 168.036 264.033 171.802C266.525 175.562 268.082 180.753 268.082 186.42C268.082 192.096 266.526 197.211 264.036 200.893C261.545 204.578 258.155 206.783 254.476 206.783C252.194 206.783 250.519 206.162 249.171 205.241C247.81 204.31 246.763 203.061 245.757 201.762C245.601 201.559 245.445 201.355 245.288 201.149C243.485 198.785 241.63 196.352 238.124 196.352C233.844 196.352 230.465 200.18 230.465 204.806V249.009C230.465 254.543 226.43 258.941 221.561 258.941H200.507C196.876 258.941 193.848 255.662 193.848 251.487C193.848 247.996 195.727 246.243 197.916 244.2C198.074 244.053 198.233 243.905 198.393 243.754C199.574 242.643 200.798 241.412 201.719 239.772C202.645 238.122 203.252 236.083 203.252 233.362C203.252 224.362 194.519 217.215 183.944 217.215C173.369 217.215 164.635 224.362 164.635 233.362C164.635 236.085 165.243 238.137 166.168 239.802C167.088 241.459 168.311 242.708 169.493 243.833C169.668 244 169.842 244.164 170.014 244.326C172.188 246.375 174.04 248.12 174.04 251.5C174.04 255.661 171.013 258.941 167.369 258.941H127.518C122.649 258.941 118.614 254.543 118.614 249.009V204.806C118.614 200.631 121.645 197.352 125.273 197.352C128.225 197.352 129.774 199.363 131.644 201.792C131.792 201.984 131.942 202.178 132.094 202.374C133.112 203.683 134.246 205.041 135.75 206.067C137.268 207.101 139.143 207.783 141.625 207.783C145.735 207.783 149.399 205.314 152.013 201.447C154.629 197.577 156.231 192.261 156.231 186.42C156.231 180.581 154.629 175.193 152.015 171.251C149.405 167.313 145.741 164.764 141.625 164.764C139.141 164.764 137.269 165.447 135.756 166.481C134.255 167.507 133.128 168.866 132.116 170.174C131.969 170.364 131.824 170.552 131.682 170.738C129.814 173.173 128.264 175.195 125.273 175.195C121.621 175.195 118.614 172.184 118.614 168.035V144.681C118.614 139.167 122.631 135.043 127.518 135.043H167.369Z" fill="#F5F5F5" stroke="#00D09E"/>
<g filter="url(#filter0_d_40_13)">
<path d="M381.046 187.055C381.046 198.578 374.731 207.918 366.94 207.918C357.409 207.918 357.618 197.486 350.588 197.486C346.633 197.486 343.429 201.04 343.429 205.44V249.644C343.429 255.404 339.218 260.075 334.025 260.075H312.971C309.016 260.075 305.813 256.522 305.813 252.121C305.813 244.135 315.217 244.559 315.217 233.997C315.217 225.355 306.797 218.349 296.408 218.349C286.02 218.349 277.6 225.355 277.6 233.997C277.6 244.568 287.004 244.337 287.004 252.134C287.004 256.522 283.801 260.075 279.833 260.075H239.983C234.79 260.075 230.579 255.404 230.579 249.644V205.44C230.579 201.04 233.785 197.486 237.738 197.486C244.7 197.486 244.567 207.918 254.089 207.918C261.877 207.918 268.196 198.562 268.196 187.055C268.196 175.548 261.877 165.898 254.089 165.898C244.559 165.898 244.767 176.33 237.738 176.33C233.785 176.33 230.579 173.07 230.579 168.669V145.316C230.579 139.556 234.79 135.178 239.983 135.178H279.833C283.801 134.604 287.004 131.344 287.004 126.943C287.004 119.221 277.6 119.367 277.6 108.806C277.6 100.164 286.02 93.4517 296.408 93.4517C306.797 93.4517 315.217 100.457 315.217 108.806C315.217 119.377 305.813 119.146 305.813 126.943C305.813 131.328 309.019 134.884 312.971 134.884H334.025C339.218 134.884 343.429 139.556 343.429 145.022V168.376C343.429 172.76 346.636 176.317 350.588 176.317C357.55 176.317 357.418 165.885 366.94 165.885C374.728 165.898 381.046 175.548 381.046 187.055Z" fill="#7B29D7" fill-opacity="0.926215" shape-rendering="crispEdges"/>
</g>
<defs>
<filter id="filter0_d_40_13" x="226.579" y="93.4517" width="158.468" height="174.624" filterUnits="userSpaceOnUse" color-interpolation-filters="sRGB">
<feFlood flood-opacity="0" result="BackgroundImageFix"/>
<feColorMatrix in="SourceAlpha" type="matrix" values="0 0 0 0 0 0 0 0 0 0 0 0 0 0 0 0 0 0 127 0" result="hardAlpha"/>
<feOffset dy="4"/>
<feGaussianBlur stdDeviation="2"/>
<feComposite in2="hardAlpha" operator="out"/>
<feColorMatrix type="matrix" values="0 0 0 0 0 0 0 0 0 0 0 0 0 0 0 0 0 0 0.25 0"/>
<feBlend mode="normal" in2="BackgroundImageFix" result="effect1_dropShadow_40_13"/>
<feBlend mode="normal" in="SourceGraphic" in2="effect1_dropShadow_40_13" result="shape"/>
</filter>
</defs>
</svg>
