<svg width="48" height="48" viewBox="0 0 48 48" fill="none" xmlns="http://www.w3.org/2000/svg">
<path d="M40.72 30.2799C38.6023 30.0185 36.4995 29.648 34.42 29.1699C33.9123 29.0002 33.3694 28.9644 32.8438 29.066C32.3183 29.1677 31.8278 29.4032 31.42 29.7499C30.89 30.2899 29.36 31.7999 27.77 33.3599C22.0732 30.5595 17.4661 25.9488 14.67 20.2499C16.22 18.6599 17.67 17.1399 18.26 16.6099C18.6067 16.202 18.8422 15.7116 18.9438 15.186C19.0454 14.6605 19.0097 14.1176 18.84 13.6099C18.3612 11.5271 17.9907 9.42098 17.73 7.29988C17.702 7.02978 17.6194 6.76819 17.4871 6.53106C17.3548 6.29393 17.1755 6.08623 16.9603 5.92062C16.7451 5.75501 16.4985 5.63496 16.2354 5.56778C15.9723 5.5006 15.6982 5.48771 15.43 5.52988H6.90998C6.55829 5.56163 6.22908 5.71644 5.98031 5.96704C5.73154 6.21764 5.57915 6.54797 5.54998 6.89988C4.99998 14.5899 9.28998 22.8199 10.16 24.3999V24.4599L10.28 24.6899C13.3943 30.0913 17.8785 34.5755 23.28 37.6899V37.6899L23.72 37.9399C25.72 38.9999 33.67 42.9999 41.1 42.4499C41.4554 42.4252 41.7905 42.2748 42.0452 42.0256C42.2999 41.7764 42.4576 41.4447 42.49 41.0899V32.5799C42.5322 32.3116 42.5193 32.0376 42.4521 31.7745C42.3849 31.5114 42.2648 31.2647 42.0992 31.0495C41.9336 30.8343 41.7259 30.6551 41.4888 30.5228C41.2517 30.3905 40.9901 30.3078 40.72 30.2799Z" stroke="#00D09E" stroke-width="3" stroke-linecap="round" stroke-linejoin="round"/>
</svg>
